<svg xmlns="http://www.w3.org/2000/svg" viewBox="0 0 787 787"><defs><style>.cls-1{fill:none;}.cls-2{fill:#1d1d1b;}</style></defs><title>Asset 3</title><g id="Layer_2" data-name="Layer 2"><g id="Layer_4" data-name="Layer 4"><path class="cls-1" d="M402.34,382.84C480.93,134.46,615.08,16.9,787,28.36V14.2C634.74,2.25,488,87.33,400.73,381.69,434.34,178,514.2,50.62,631.41,0H597.83C504.12,53.68,430,168.92,399,380.79,402.67,201.39,449.15,74.11,532.66,0h-21C442.33,71,397.58,190.45,397.11,380.14,376.52,212.7,399.94,85.47,462.74,0H445.6C393.21,80.43,370,201.67,395.17,379.76,351.86,220.33,355.81,93.05,402.94,0H388.53c-39.21,86.76-44.46,209.09,4.7,379.66C327.51,226.54,314,99.09,348.74,0H333.93C305.67,92,317,215.21,391.26,379.84,301.46,232.83,270.77,105,295.39,0H280.73c-19.52,97,7.4,221.16,108.61,380.3C273.34,240.11,225.65,111.76,242.47,0h-14.8C214.59,102.56,256.21,228.09,387.5,381,242.52,249.55,177.73,120.36,189.27,0h-15c-9.18,109.77,46.11,237.36,211.54,382C208.76,262.53,126.62,132.16,135.65,0H120.56c-8,119.69,59.45,250.72,263.67,383.22C172.44,280.72,72.76,148.72,82,0H67.2c-9.3,133.5,68.21,270.37,315.66,384.65-248-78.86-365.43-213-354-384.65H14.7C2.78,152.06,87.79,298.64,381.7,386.26,177.59,352.29,50.23,272,0,154.28v33.85c53.43,94,168.59,168.51,380.79,199.88C201.25,384.06,74,337.33,0,253.58v21c70.9,69.55,190.31,114.53,380.14,115.27C212.61,410.24,85.38,386.62,0,323.65v17.17c80.36,52.53,201.59,75.93,379.76,51C220.26,434.91,93,430.78,0,383.52V399c86.82,39.09,209.16,44.18,379.66-5.22C226.6,459.73,99.15,473.45,0,438.77v14.81c92,28.17,215.27,16.64,379.84-57.82C232.89,485.8,105.1,516.66,0,492.12v14.65c97,19.46,221.22-7.61,380.3-109.09C240.19,513.94,111.83,561.79,0,545v14.8c102.62,13,228.17-28.73,381-160.32C249.65,544.79,120.46,609.75,0,598.24v15c109.85,9.15,237.46-46.27,382-212C262.68,578.58,132.29,660.88,0,651.86V667c119.8,8,250.88-59.56,383.24-264.16C280.93,614.92,148.91,714.77,0,705.51V720.3C133.65,729.63,270.6,652,384.66,404.16,306.07,652.54,171.92,770.1,0,758.64V772.8c152.26,12,299-73.13,386.27-367.49C352.66,609,272.8,736.38,155.59,787h33.58C282.88,733.32,357,618.08,388,406.21c-3.7,179.4-50.18,306.68-133.69,380.79h21c69.37-71,114.12-190.45,114.59-380.14C410.48,574.3,387.06,701.53,324.26,787H341.4c52.39-80.43,75.61-201.67,50.43-379.76C435.14,566.67,431.19,694,384.06,787h14.41c39.21-86.76,44.46-209.09-4.7-379.66C459.49,560.46,473,687.91,438.26,787h14.81c28.26-92,16.89-215.21-57.33-379.84,89.8,147,120.49,274.8,95.87,379.84h14.66c19.52-97-7.4-221.16-108.61-380.3,116,140.19,163.69,268.54,146.87,380.3h14.8c13.08-102.56-28.54-228.09-159.83-381,145,131.48,209.77,260.67,198.23,381h15c9.18-109.77-46.11-237.36-211.54-382,177,119.48,259.16,249.85,250.13,382h15.09c8-119.69-59.45-250.72-263.67-383.22C614.56,506.28,714.24,638.28,705,787h14.8c9.3-133.5-68.21-270.37-315.66-384.65,248,78.86,365.43,213,354,384.65H772.3c11.92-152.06-73.09-298.64-367-386.26,204.11,34,331.47,114.28,381.7,232V598.87c-53.43-94-168.59-168.51-380.79-199.88C585.75,402.94,713,449.67,787,533.42v-21c-70.9-69.55-190.31-114.53-380.14-115.27,167.53-20.36,294.76,3.26,380.14,66.23V446.18c-80.36-52.53-201.59-75.93-379.76-51,159.5-43.09,286.77-39,379.76,8.3V388c-86.82-39.09-209.16-44.18-379.66,5.22,153.06-65.94,280.51-79.66,379.66-45V333.42c-92-28.17-215.27-16.64-379.84,57.82,147-90,274.74-120.9,379.84-96.36V280.23c-97-19.46-221.22,7.61-380.3,109.09C546.81,273.06,675.17,225.21,787,242v-14.8c-102.62-13-228.17,28.73-381,160.32C537.35,242.21,666.54,177.25,787,188.76v-15C677.15,164.57,549.54,220,405,385.77,524.32,208.42,654.71,126.12,787,135.14V120.05c-119.8-8-250.88,59.56-383.24,264.16C506.07,172.08,638.09,72.23,787,81.49V66.7C653.35,57.37,516.4,135,402.34,382.84Z"/><path class="cls-2" d="M395.17,379.76C370,201.67,393.21,80.43,445.6,0H402.94C355.81,93.05,351.86,220.33,395.17,379.76Z"/><path class="cls-2" d="M391.83,407.24C417,585.33,393.79,706.57,341.4,787h42.66C431.19,694,435.14,566.67,391.83,407.24Z"/><path class="cls-2" d="M397.11,380.14C397.58,190.45,442.33,71,511.7,0h-49C399.94,85.47,376.52,212.7,397.11,380.14Z"/><path class="cls-2" d="M389.89,406.86C389.42,596.55,344.67,716,275.3,787h49C387.06,701.53,410.48,574.3,389.89,406.86Z"/><path class="cls-2" d="M399,380.79C430,168.92,504.12,53.68,597.83,0H532.66C449.15,74.11,402.67,201.39,399,380.79Z"/><path class="cls-2" d="M388,406.21C357,618.08,282.88,733.32,189.17,787h65.17C337.85,712.89,384.33,585.61,388,406.21Z"/><path class="cls-2" d="M400.73,381.69C488,87.33,634.74,2.25,787,14.2V0H631.41C514.2,50.62,434.34,178,400.73,381.69Z"/><path class="cls-2" d="M386.27,405.31C299,699.67,152.26,784.75,0,772.8V787H155.59C272.8,736.38,352.66,609,386.27,405.31Z"/><path class="cls-2" d="M402.34,382.84C516.4,135,653.35,57.37,787,66.7V28.36C615.08,16.9,480.93,134.46,402.34,382.84Z"/><path class="cls-2" d="M384.66,404.16C270.6,652,133.65,729.63,0,720.3v38.34C171.92,770.1,306.07,652.54,384.66,404.16Z"/><path class="cls-2" d="M403.76,384.21C536.12,179.61,667.2,112,787,120.05V81.49C638.09,72.23,506.07,172.08,403.76,384.21Z"/><path class="cls-2" d="M383.24,402.79C250.88,607.39,119.8,675,0,667v38.56C148.91,714.77,280.93,614.92,383.24,402.79Z"/><path class="cls-2" d="M405,385.77c144.56-165.78,272.17-221.2,382-212V135.14C654.71,126.12,524.32,208.42,405,385.77Z"/><path class="cls-2" d="M382,401.23C237.46,567,109.85,622.43,0,613.28v38.58C132.29,660.88,262.68,578.58,382,401.23Z"/><path class="cls-2" d="M406,387.48C558.83,255.89,684.38,214.13,787,227.16v-38.4C666.54,177.25,537.35,242.21,406,387.48Z"/><path class="cls-2" d="M381,399.52C228.17,531.11,102.62,572.87,0,559.84v38.4C120.46,609.75,249.65,544.79,381,399.52Z"/><path class="cls-2" d="M406.7,389.32C565.78,287.84,690,260.77,787,280.23V242C675.17,225.21,546.81,273.06,406.7,389.32Z"/><path class="cls-2" d="M380.3,397.68C221.22,499.16,97,526.23,0,506.77V545C111.83,561.79,240.19,513.94,380.3,397.68Z"/><path class="cls-2" d="M407.16,391.24C571.73,316.78,695,305.25,787,333.42V294.88C681.9,270.34,554.11,301.2,407.16,391.24Z"/><path class="cls-2" d="M379.84,395.76C215.27,470.22,92,481.75,0,453.58v38.54C105.1,516.66,232.89,485.8,379.84,395.76Z"/><path class="cls-2" d="M407.34,393.21C577.84,343.81,700.18,348.9,787,388V348.23C687.85,313.55,560.4,327.27,407.34,393.21Z"/><path class="cls-2" d="M379.66,393.79C209.16,443.19,86.82,438.1,0,399v39.76C99.15,473.45,226.6,459.73,379.66,393.79Z"/><path class="cls-2" d="M407.24,395.18c178.17-24.93,299.4-1.53,379.76,51v-42.7C694,356.22,566.74,352.09,407.24,395.18Z"/><path class="cls-2" d="M379.76,391.82c-178.17,24.93-299.4,1.53-379.76-51v42.7C93,430.78,220.26,434.91,379.76,391.82Z"/><path class="cls-2" d="M406.86,397.12c189.83.74,309.24,45.72,380.14,115.27v-49C701.62,400.38,574.39,376.76,406.86,397.12Z"/><path class="cls-2" d="M380.14,389.88C190.31,389.14,70.9,344.16,0,274.61v49C85.38,386.62,212.61,410.24,380.14,389.88Z"/><path class="cls-2" d="M406.21,399C618.41,430.36,733.57,504.85,787,598.87V533.42C713,449.67,585.75,402.94,406.21,399Z"/><path class="cls-2" d="M380.79,388C168.59,356.64,53.43,282.15,0,188.13v65.45C74,337.33,201.25,384.06,380.79,388Z"/><path class="cls-2" d="M405.3,400.74c293.91,87.62,378.92,234.2,367,386.26H787V632.72C736.77,515,609.41,434.71,405.3,400.74Z"/><path class="cls-2" d="M381.7,386.26C87.79,298.64,2.78,152.06,14.7,0H0V154.28C50.23,272,177.59,352.29,381.7,386.26Z"/><path class="cls-2" d="M404.14,402.35C651.59,516.63,729.1,653.5,719.8,787h38.33C769.57,615.34,652.18,481.21,404.14,402.35Z"/><path class="cls-2" d="M382.86,384.65C135.41,270.37,57.9,133.5,67.2,0H28.87C17.43,171.66,134.82,305.79,382.86,384.65Z"/><path class="cls-2" d="M402.77,403.78C607,536.28,674.45,667.31,666.44,787H705C714.24,638.28,614.56,506.28,402.77,403.78Z"/><path class="cls-2" d="M384.23,383.22C180,250.72,112.55,119.69,120.56,0H82C72.76,148.72,172.44,280.72,384.23,383.22Z"/><path class="cls-2" d="M401.22,405C566.65,549.64,621.94,677.23,612.76,787h38.59C660.38,654.84,578.24,524.47,401.22,405Z"/><path class="cls-2" d="M385.78,382C220.35,237.36,165.06,109.77,174.24,0H135.65C126.62,132.16,208.76,262.53,385.78,382Z"/><path class="cls-2" d="M399.5,406C530.79,558.91,572.41,684.44,559.33,787h38.4C609.27,666.64,544.48,537.45,399.5,406Z"/><path class="cls-2" d="M387.5,381C256.21,228.09,214.59,102.56,227.67,0h-38.4C177.73,120.36,242.52,249.55,387.5,381Z"/><path class="cls-2" d="M397.66,406.7C498.87,565.84,525.79,690,506.27,787h38.26C561.35,675.24,513.66,546.89,397.66,406.7Z"/><path class="cls-2" d="M389.34,380.3C288.13,221.16,261.21,97,280.73,0H242.47C225.65,111.76,273.34,240.11,389.34,380.3Z"/><path class="cls-2" d="M395.74,407.16C470,571.79,481.33,695,453.07,787h38.54C516.23,682,485.54,554.17,395.74,407.16Z"/><path class="cls-2" d="M391.26,379.84C317,215.21,305.67,92,333.93,0H295.39C270.77,105,301.46,232.83,391.26,379.84Z"/><path class="cls-2" d="M393.77,407.34c49.16,170.57,43.91,292.9,4.7,379.66h39.79C473,687.91,459.49,560.46,393.77,407.34Z"/><path class="cls-2" d="M393.23,379.66C344.07,209.09,349.32,86.76,388.53,0H348.74C314,99.09,327.51,226.54,393.23,379.66Z"/></g></g></svg>