<svg xmlns="http://www.w3.org/2000/svg" viewBox="0 0 625.95 394.01"><defs><style>.cls-1{fill:#fff;}</style></defs><title>eye</title><g id="Layer_2" data-name="Layer 2"><g id="Layer_5" data-name="Layer 5"><path class="cls-1" d="M624.56,196.77C589,120,506.07,70.52,431.68,38.15,365.44,9.33,278.56-14,207.21,9.88,147,30,90.36,77.83,42.88,118.62c-6.1,5.24-61,58.3-36.71,69.26-4,8.77,10.94,37.53,14,41.41C59.37,279.85,119,321.46,171.67,357c68.13,45.93,162.36,44.07,238.4,21.75,74.77-21.95,170.07-85.94,202.16-159.56a12.21,12.21,0,0,0,.6-2.38C621.19,216.17,629.27,207,624.56,196.77Zm-86.45-64.55c-7.05-5.18-14.34-10.16-21.72-15a10.48,10.48,0,0,0-.21-3C523.74,120.05,531.14,126,538.11,132.22ZM274.82,333.43c-57.56-24.4-77.65-100.25-78.91-156.57-1-47,13.09-86.74,45.84-111.17a11.94,11.94,0,0,0,7.36,1.13c87.67-14.68,176.13,38.75,198.43,126C470,280.82,355.46,367.6,274.82,333.43Zm-132-45.36c-42.91-28.2-74-75.31-117.56-100.65C75.05,125,132.89,83.27,203,67.1c-22.57,30.27-32.58,75-33,109.76-.61,52,16.6,111.18,53.16,149.9A333.59,333.59,0,0,1,142.8,288.07Zm84.75,68.28a466.36,466.36,0,0,0,71.67,12.17C274.29,368,249.85,364.15,227.55,356.35Zm273.89-70.67c-26.57,24.38-57.26,39.18-90.05,47.57,41.53-32.67,69.19-83.82,63.73-134.55-4.61-42.84-27.32-80.77-59.3-108.91,63.09,26.49,120.53,68.29,166.22,117C551.32,224,526.91,262.31,501.44,285.68Z"/><path class="cls-1" d="M257.32,167.83c-7.65,10.56-9.67,22.73-7.91,34.84-6.5,30.18,13.66,60.46,42,70.82,46.48,17,95-39.84,93.07-82.83C381.89,133.77,285.06,129.57,257.32,167.83Zm55.16,1.95a87.77,87.77,0,0,0-9.39,3.41,8.38,8.38,0,0,0-6,1.29,16.89,16.89,0,0,1-3.36,1.71c-.35.08-.67.06-1,.16a25.36,25.36,0,0,0-3.95,1.5,58,58,0,0,1,7.87-6.1A77.19,77.19,0,0,1,312.48,169.78Z"/></g></g></svg>