<svg xmlns="http://www.w3.org/2000/svg" viewBox="0 0 928.05 926"><defs><style>.cls-1{fill:#fff;}.cls-2{fill:none;stroke:#fff;stroke-linecap:round;stroke-miterlimit:10;stroke-width:1.71px;stroke-dasharray:1.48 7.38 1.48 7.38;}</style></defs><title>iot</title><g id="Layer_2" data-name="Layer 2"><g id="Layer_2-2" data-name="Layer 2"><path class="cls-1" d="M860.9,426.14a51.46,51.46,0,0,0-13-9.21,60.38,60.38,0,0,1,6.08,12.2A60.21,60.21,0,0,0,860.9,426.14Z"/><path class="cls-1" d="M799.51,459.44H821.6V440.72A92.58,92.58,0,0,1,802.67,438,93.81,93.81,0,0,0,799.51,459.44Z"/><path class="cls-1" d="M802.24,486.29a93.23,93.23,0,0,1,19.36-2.88V466.56H799.51A95.54,95.54,0,0,0,802.24,486.29Z"/><path class="cls-1" d="M804.87,431.22a86.26,86.26,0,0,0,16.73,2.38V411.76c-1,.07-2.05.17-3.06.31C813.07,415.38,808.28,422.23,804.87,431.22Z"/><path class="cls-1" d="M788.75,499.21a51.71,51.71,0,0,0,16.09,11,60.91,60.91,0,0,1-7.43-15A58.41,58.41,0,0,0,788.75,499.21Z"/><path class="cls-1" d="M804.78,415.85a51.4,51.4,0,0,0-14.8,9.77,60,60,0,0,0,8,3.51A59.69,59.69,0,0,1,804.78,415.85Z"/><path class="cls-1" d="M795.8,435.89A64.72,64.72,0,0,1,785,431a51.14,51.14,0,0,0-11.11,28.46h18.46A101.82,101.82,0,0,1,795.8,435.89Z"/><path class="cls-1" d="M792.39,466.56H773.92A51.12,51.12,0,0,0,784,493.74a64.5,64.5,0,0,1,11.35-5.33A101.56,101.56,0,0,1,792.39,466.56Z"/><path class="cls-1" d="M818.67,514c1,.12,2,.22,2.93.29v-23.7a85.54,85.54,0,0,0-17.33,2.55C807.74,503,812.82,510.47,818.67,514Z"/><path class="cls-1" d="M856.55,488.38a64.34,64.34,0,0,1,10.23,4.69,51,51,0,0,0,9.62-26.51H859.53A101.27,101.27,0,0,1,856.55,488.38Z"/><path class="cls-1" d="M847.81,509.1a51.54,51.54,0,0,0,14.3-10.46,60.17,60.17,0,0,0-7.61-3.4A62.2,62.2,0,0,1,847.81,509.1Z"/><path class="cls-1" d="M825.16,360.11A102.89,102.89,0,1,0,928.05,463,102.89,102.89,0,0,0,825.16,360.11Zm0,164.94a62,62,0,1,1,62.05-62A62.12,62.12,0,0,1,825.16,525.05Z"/><path class="cls-1" d="M833.89,412.38a51.75,51.75,0,0,0-5.17-.62v21.91A86.61,86.61,0,0,0,847,431.2C843.73,422.5,839.14,415.8,833.89,412.38Z"/><path class="cls-1" d="M856.11,435.89a100.76,100.76,0,0,1,3.42,23.55H876.4a51.11,51.11,0,0,0-10.62-27.84A67,67,0,0,1,856.11,435.89Z"/><path class="cls-1" d="M828.72,514.24c1.71-.12,3.39-.32,5-.6,5.63-3.61,10.5-11,13.87-20.54a86.35,86.35,0,0,0-18.92-2.63Z"/><path class="cls-1" d="M849.24,438a93.53,93.53,0,0,1-20.52,2.81v18.66h23.69A94.61,94.61,0,0,0,849.24,438Z"/><path class="cls-1" d="M852.4,466.56H828.72v16.79a93.08,93.08,0,0,1,21,2.89A94.4,94.4,0,0,0,852.4,466.56Z"/><path class="cls-1" d="M719.2,634.68A102.89,102.89,0,1,0,822.09,737.57,102.9,102.9,0,0,0,719.2,634.68ZM716,703.38h76.74a8.42,8.42,0,0,1,1.52.15l-43,24.71-36.33-24.75A7.34,7.34,0,0,1,716,703.38Zm-58.11,58.41V751.12H692.1l-.41,3.46-.08.64v.64a18.8,18.8,0,0,0,1,5.93Zm35.48-20.9h-47V730.22h48.33ZM697,711l-.66,5.46H635.92V705.76h62A18.7,18.7,0,0,0,697,711Zm90.41,53.25H710.64a8.33,8.33,0,0,1-5.89-2.43h0a8.35,8.35,0,0,1-1-1.21l0,0a8.92,8.92,0,0,1-.7-1.29.57.57,0,0,0-.08-.13,8.78,8.78,0,0,1-.41-1.35c0-.08-.06-.15-.08-.23a8.57,8.57,0,0,1-.17-1.69l2.85-23.5.26-2.15,2.23-18.47a8.64,8.64,0,0,1,.16-1.54c0-.06,0-.12,0-.17l0,0a8.38,8.38,0,0,1,1.34-3.12v4l39.61,26.84a1.29,1.29,0,0,0,.16.09l.18.1a4.33,4.33,0,0,0,1,.37l.1,0a4.53,4.53,0,0,0,1.09.14h0a4.53,4.53,0,0,0,1.09-.14l.1,0a4.33,4.33,0,0,0,1-.37l.18-.1a1.29,1.29,0,0,0,.16-.09L801,710.56a9.07,9.07,0,0,1,.12,1.18l-5.34,44.12A8.37,8.37,0,0,1,787.37,764.22Z"/><path class="cls-1" d="M236,743.21c1.15,4.55-11.45,3.1-14.52,7.36s-10.6,1.4-12.34.58-8.43,1.91-7.84-2.73,4.64-4.91,9-6.81,10.64-8.25,7.55-9.08c-14.53-3.9-19.49-17.55-19.49-17.55-.87-.16-.66-9.65-4.43-9.92s-5.81,1.09-11.32,0-4.36-4.64-5.23-12.28,2.32-5.18,4-7.63a4.37,4.37,0,0,1,.54-.6,51.45,51.45,0,0,0-34.78,48.61v.1c3.76.25,10.6,1,10.92,3.62.44,3.55,0,8,3.11,9.34s4-5.34,6.67-3.56,9.79,3.49,9.79,6.64-1.34,8,0,8.92,6.67,7.12,6.67,8,1.88,5.41,1.32,7.14a24.42,24.42,0,0,1-5.08,7.91,51.34,51.34,0,0,0,63.73-71.43c.35,5.22.11,10,1.26,11.54C250.58,728.21,233.37,732.9,236,743.21Z"/><path class="cls-1" d="M198.55,630.27A102.89,102.89,0,1,0,301.44,733.15,102.88,102.88,0,0,0,198.55,630.27Zm0,164.94a62,62,0,1,1,62.05-62.05A62.13,62.13,0,0,1,198.55,795.21Z"/><circle class="cls-1" cx="103.19" cy="435.96" r="16.56"/><path class="cls-1" d="M102.89,360.11A102.89,102.89,0,1,0,205.78,463,102.89,102.89,0,0,0,102.89,360.11Zm-.22,47.11h.43a32.08,32.08,0,0,1,31.44,31.94c0,21.2-22.65,42.67-31.65,50.36-.6-.51-1.27-1.09-2-1.73l0,0c-10-8.85-29.64-28.84-29.64-48.6A32.09,32.09,0,0,1,102.67,407.22Zm.67,112.2c-19,0-38.19-5.44-38.19-15.84,0-7.3,9.46-12.16,21.65-14.41,2.36,2.38,4.6,4.47,6.55,6.21-13.28,1.48-21.08,5.69-21.08,8.19,0,3.08,11.79,8.73,31.07,8.73s31.07-5.65,31.07-8.73c0-2.55-8.14-6.86-21.9-8.26,2-1.77,4.22-3.88,6.6-6.27,12.56,2.18,22.41,7.08,22.41,14.54C141.52,514,122.31,519.42,103.34,519.42Z"/><circle class="cls-1" cx="464.76" cy="107.05" r="19.34"/><path class="cls-1" d="M464.76,0A102.89,102.89,0,1,0,567.65,102.89,102.9,102.9,0,0,0,464.76,0Zm54.07,117.84-14.62.94a41.33,41.33,0,0,1-3.25,7.88l9.66,11-15.26,15.26-11-9.67a40.24,40.24,0,0,1-7.87,3.25l-.95,14.62H454l-1-14.62a40.24,40.24,0,0,1-7.87-3.25l-11,9.67-15.26-15.27,9.67-11a40.73,40.73,0,0,1-3.26-7.88l-14.61-.94V96.26l14.61-.94a40.73,40.73,0,0,1,3.26-7.88l-9.67-11,15.26-15.26,11,9.66A40.7,40.7,0,0,1,453,67.6L454,53h21.57l.95,14.62a40.87,40.87,0,0,1,7.87,3.25l11-9.66,15.26,15.26-9.66,11a41.6,41.6,0,0,1,3.25,7.88l14.62.94Z"/><path class="cls-1" d="M722.14,112A102.89,102.89,0,1,0,825,214.9,102.89,102.89,0,0,0,722.14,112Zm40.78,151.56a33.29,33.29,0,0,1-3.33-.17,28.1,28.1,0,0,1-3.06.17H730.71l27.78-28a5.93,5.93,0,0,0,1.27-6.27,5.51,5.51,0,0,0-5.1-3.58H741V196.43a6.39,6.39,0,0,0-6.39-6.39H715.22a6.39,6.39,0,0,0-6.39,6.39v29.26H694a5.62,5.62,0,0,0-5.5,5.73,5.82,5.82,0,0,0,2,4.46L718,263.57H676.73a27.22,27.22,0,0,1-7.25-53.45,21.43,21.43,0,0,1,30.6-16.8,39.44,39.44,0,0,1,76.38,9.56,31.85,31.85,0,0,1-13.54,60.69Z"/><path class="cls-1" d="M208.85,222.78a10.69,10.69,0,0,0-5.34,20v11.9h10.68v-11.9a10.69,10.69,0,0,0-5.34-20Z"/><path class="cls-1" d="M208.85,170.9a16.33,16.33,0,0,0-16.31,16.31v17.37h32.62V187.21A16.33,16.33,0,0,0,208.85,170.9Z"/><path class="cls-1" d="M208.85,112A102.89,102.89,0,1,0,311.74,214.9,102.89,102.89,0,0,0,208.85,112ZM240.46,267.8H177.24a12.09,12.09,0,0,1-12.09-12.09v-39a12.1,12.1,0,0,1,9.6-11.84V187.21a34.1,34.1,0,0,1,68.2,0v17.62a12.1,12.1,0,0,1,9.6,11.84v39h0A12.09,12.09,0,0,1,240.46,267.8Z"/><circle class="cls-1" cx="464.76" cy="875.3" r="8.04"/><path class="cls-1" d="M487.18,767H442.34a4.46,4.46,0,0,0-4.56,4.34v84.77a4.46,4.46,0,0,0,4.56,4.35h44.84a4.46,4.46,0,0,0,4.56-4.35V771.38A4.45,4.45,0,0,0,487.18,767Z"/><path class="cls-1" d="M464.76,720.22A102.89,102.89,0,1,0,567.65,823.11,102.9,102.9,0,0,0,464.76,720.22Zm40,153.66a14.24,14.24,0,0,1-14.24,14.24H439a14.24,14.24,0,0,1-14.23-14.24v-102A14.23,14.23,0,0,1,439,757.66h51.59a14.24,14.24,0,0,1,14.24,14.23Z"/><circle class="cls-2" cx="464.76" cy="481.38" r="366.22"/></g></g></svg>